<?xml version="1.0" encoding="UTF-8"?>
<svg width="512" height="512" version="1.1" viewBox="0 0 135.47 135.47" xml:space="preserve" xmlns="http://www.w3.org/2000/svg"><g transform="matrix(.40934 0 0 .39294 -35.179 -39.771)" fill="none" stroke="#000" stroke-linecap="round" stroke-linejoin="round" stroke-width="7.8401"><path d="m147.25 130.44c6.1933 0.0632 20.436 3.951 20.853 4.2144 1.0114 0.67431 1.2824 2.3495 1.0426 5.268-0.16682 1.7911-0.9071 20.809-1.0426 21.072-0.32322 0.5268-3.1384-1.5909-4.1706-2.1072-14.932-4.3972-23.318-3.3341-30.894 10.188-2.0628 6.456-3.2793 16.079-3.5554 23.053-0.12512 18.017-0.073 58.085 0.0417 58.422 0.46919 1.159 4.6398 1.0325 10.187 1.0114 4.1914 0.0105 13.064 0.0527 17.756 0.0738 6.6729 0.0105 11.052-0.10536 11.678 1.022 0.29194 0.59002 0.17725 22.663 0 23.179-0.41706 1.0536-3.3052 1.1274-4.1706 1.0536-0.61516-0.0632-29.83 0.0738-30.789 0.0316-2.3042-0.0632-4.2227 0.24233-4.6606 1.022-0.0313 0.0738 0.18768 121.54 0 122.22-0.38578 1.2011-6.8397 0.9061-10.322 0.85342-4.8796-0.0737-14.305 0.50573-14.993 0.43197-1.4076-0.18964-1.8768-1.5593-1.835-3.8035 0.0208-0.40037 0.28151-48.898 0.5526-69.654 0.11469-19.407-0.38578-47.18-0.37535-47.539 0.0104-2.181-0.72985-3.7508-2.2625-4.0985-0.69857-0.13697-5.2758 0.34768-6.2142 0.53733-2.4815 0.47412-3.7222 0.23179-4.1706-1.0536-0.71942-2.3601-0.16682-22.631 0-23.179 0.44834-1.2749 1.7412-1.5383 4.1706-1.0536 0.93838 0.18965 5.4739 0.76913 6.1724 0.62162 1.5014-0.35822 2.346-2.044 2.4189-4.2882 0.58388-17.279-0.3128-62.816 0.27108-64.797 0.58388-2.0018 1.5118-20.956 3.9516-27.246 1.3346-3.361 6.2559-10.81 8.0388-12.812 2.69-2.9501 8.5705-6.8168 12.512-8.4288 8.1118-3.2451 17.694-4.2144 19.81-4.2144z"/><path d="m256.72 105.95c-0.0834 0.0632-10.28 24.781-11.636 28.679-5.8597 17.068-10.729 36.307-15.223 58.011-1.0322 5.3418-4.2018 28.805-4.7232 34.769-1.0426 14.54-2.3564 47.823-1.981 63.922 0.36493 8.4499 1.6474 25.518 2.5962 34.316 2.2625 17.585 9.1023 51.858 12.564 66.545 2.5336 9.9355 8.0075 26.909 11.771 35.506 4.3374 10.03 6.0056 14.361 6.6312 14.35 0.91752-0.0527 22.448-8.9767 22.938-9.4824 0.82369-0.88502 1.1156-1.8649 0.88625-2.929-0.30237-1.2643-2.1896-3.8456-2.836-5.8159-2.3981-6.743-7.8198-22.484-10.833-31.482-2.6275-8.5658-7.4966-26.351-8.852-33.073-0.93838-4.7201-3.4824-23.232-4.4312-32.061-1.199-14.772-2.8777-47.728-3.1279-63.216 0.13554-8.3445 0.82368-24.18 1.3763-31.713 0.74028-7.5859 2.7943-23.074 4.1184-30.871 1.491-7.9442 5.0255-24.212 6.9753-32.124 5.3175-19.629 17.798-51.331 17.767-52.796-0.0834-1.2222-1.9497-2.0967-6.2559-3.1608-2.3668-0.56895-11.094-3.7087-14.336-5.1416-1.9393-0.83234-2.9507-2.4654-3.3886-2.2336z" stroke-dasharray="15.6802, 7.84012"/><path d="m376.63 107c1.5535-0.46359 3.4824 0.0211 4.1706 1.0536 0.28151 0.46358 7.9762 19.934 11.229 28.837 4.0663 12.032 7.4236 24.033 9.2482 31.229 2.054 8.8924 4.6502 23.095 5.9952 32.093 1.3763 10.357 4.5876 50.815 5.4217 67.694 0.21896 7.5227 0.38578 24.264 0.1564 32.704-0.58388 12.095-4.3582 40.342-7.9762 60.097-1.637 8.2181-5.3175 24.38-7.3611 32.198-3.7431 13.728-16.818 46.759-16.933 47.138-0.63601 1.9386-0.99051 2.0545-2.909 0.94824-1.9289-1.1379-20.613-8.2497-20.853-8.4288-1.0009-0.82181-1.0426-2.3917-0.28151-4.1406 0.0104-0.0105 8.852-23.717 10.364-28.194 2.9715-8.8608 7.6113-26.498 9.4776-34.685 1.6682-8.3235 4.327-25.055 5.526-33.336 2.6692-21.325 3.0758-34.779 2.9924-46.843 0.0313-4.1617 1.0844-10.346 1.1156-10.842 0.0626-0.84288-3.0028-46.906-4.1706-63.216-0.76113-8.2392-1.3554-12.612-2.0436-15.246-4.2123-15.614-15.014-54.524-19.842-67.062-2.1583-5.5209-4.254-11.937-4.181-12.517 0.20853-1.1484 1.7204-1.8543 6.2559-3.1608 2.346-0.66377 14.326-6.2373 14.597-6.3216z" stroke-dasharray="15.6802, 31.3605"/></g></svg>
